<svg xmlns="http://www.w3.org/2000/svg" viewBox="0 0 1024 1024">
  <defs>
    <linearGradient id="bg" x1="160" x2="864" y1="112" y2="912" gradientUnits="userSpaceOnUse">
      <stop offset="0" stop-color="#10243f"/>
      <stop offset="0.55" stop-color="#172f4d"/>
      <stop offset="1" stop-color="#0f172a"/>
    </linearGradient>
    <linearGradient id="flow" x1="224" x2="800" y1="252" y2="772" gradientUnits="userSpaceOnUse">
      <stop offset="0" stop-color="#67e8f9"/>
      <stop offset="0.48" stop-color="#38bdf8"/>
      <stop offset="1" stop-color="#22c55e"/>
    </linearGradient>
    <linearGradient id="paper" x1="330" x2="652" y1="284" y2="720" gradientUnits="userSpaceOnUse">
      <stop offset="0" stop-color="#f8fafc"/>
      <stop offset="1" stop-color="#dbeafe"/>
    </linearGradient>
    <filter id="shadow" x="-20%" y="-20%" width="140%" height="150%" color-interpolation-filters="sRGB">
      <feDropShadow dx="0" dy="28" stdDeviation="32" flood-color="#020617" flood-opacity="0.32"/>
    </filter>
    <filter id="softGlow" x="-20%" y="-20%" width="140%" height="140%" color-interpolation-filters="sRGB">
      <feDropShadow dx="0" dy="0" stdDeviation="18" flood-color="#38bdf8" flood-opacity="0.35"/>
    </filter>
  </defs>
  <rect width="1024" height="1024" rx="228" fill="url(#bg)"/>
  <circle cx="260" cy="248" r="118" fill="#1e3a5f" opacity="0.55"/>
  <circle cx="780" cy="782" r="150" fill="#064e3b" opacity="0.35"/>
  <g filter="url(#shadow)">
    <path
      d="M356 230h244l132 134v382c0 45-36 82-82 82H356c-45 0-82-37-82-82V312c0-45 37-82 82-82Z"
      fill="url(#paper)"
    />
    <path d="M600 230v98c0 28 22 50 50 50h82L600 230Z" fill="#bfdbfe"/>
    <path d="M366 474h270" stroke="#94a3b8" stroke-width="34" stroke-linecap="round" opacity="0.62"/>
    <path d="M366 578h226" stroke="#94a3b8" stroke-width="34" stroke-linecap="round" opacity="0.62"/>
  </g>
  <g filter="url(#softGlow)" fill="none" stroke="url(#flow)" stroke-width="66" stroke-linecap="round" stroke-linejoin="round">
    <path d="M257 418c58-98 169-151 283-130 76 14 137 57 177 117"/>
    <path d="M705 304l36 116-119 24"/>
    <path d="M767 606c-58 98-169 151-283 130-76-14-137-57-177-117"/>
    <path d="M319 720l-36-116 119-24"/>
  </g>
  <g fill="#e0f2fe">
    <circle cx="258" cy="418" r="30"/>
    <circle cx="766" cy="606" r="30"/>
  </g>
</svg>
