<svg xmlns="http://www.w3.org/2000/svg" viewBox="0 0 1024 1024">
  <defs>
    <linearGradient id="bg" x1="176" y1="120" x2="848" y2="904" gradientUnits="userSpaceOnUse">
      <stop offset="0" stop-color="#2b333d" />
      <stop offset="1" stop-color="#111820" />
    </linearGradient>
    <linearGradient id="mark" x1="244" y1="210" x2="780" y2="814" gradientUnits="userSpaceOnUse">
      <stop offset="0" stop-color="#67e8f9" />
      <stop offset="0.52" stop-color="#38bdf8" />
      <stop offset="1" stop-color="#2dd4bf" />
    </linearGradient>
    <filter id="glow" x="-20%" y="-20%" width="140%" height="140%" color-interpolation-filters="sRGB">
      <feDropShadow dx="0" dy="0" stdDeviation="24" flood-color="#38bdf8" flood-opacity="0.38" />
    </filter>
    <filter id="depth" x="-20%" y="-20%" width="140%" height="140%" color-interpolation-filters="sRGB">
      <feDropShadow dx="0" dy="24" stdDeviation="28" flood-color="#020617" flood-opacity="0.32" />
    </filter>
  </defs>

  <rect width="1024" height="1024" rx="216" fill="url(#bg)" />

  <g filter="url(#depth)">
    <path
      d="M704 274c-56-44-143-66-224-46-96 24-158 91-154 166 4 86 86 116 190 133 93 15 154 34 156 91 2 54-52 92-132 102-78 10-164-12-223-58"
      fill="none"
      stroke="url(#mark)"
      stroke-width="116"
      stroke-linecap="round"
      stroke-linejoin="round"
      filter="url(#glow)"
    />
  </g>

  <circle cx="320" cy="668" r="58" fill="#e8fbff" />
  <circle cx="704" cy="274" r="58" fill="#d8fff7" />
  <circle cx="320" cy="668" r="23" fill="#38bdf8" />
  <circle cx="704" cy="274" r="23" fill="#2dd4bf" />

  <path
    d="M248 510c-34-65-35-139 0-203 43-78 126-124 227-128"
    fill="none"
    stroke="#ffffff"
    stroke-width="24"
    stroke-linecap="round"
    opacity="0.16"
  />
  <path
    d="M776 514c34 65 35 139 0 203-43 78-126 124-227 128"
    fill="none"
    stroke="#ffffff"
    stroke-width="24"
    stroke-linecap="round"
    opacity="0.16"
  />
</svg>
